#Comment line ignore any data following # character 
#Hierarchical Translation and Rotation (.htr) file 
[Header]	
#Header keywords are followed by a single value 
FileType HTR		#Single word string
DataType HTRS		#Translation followed by rotation and scale data
FileVersion 1		#integer
NumSegments 84		#integer
NumFrames 2		#integer
DataFrameRate 30		#integer, data frame rate in this file
EulerRotationOrder ZYX
CalibrationUnits mm
RotationUnits Degrees
GlobalAxisofGravity Y
BoneLengthAxis Y
ScaleFactor 1.00
[SegmentNames&Hierarchy]
#CHILD	PARENT
MASTER GLOBAL
root MASTER
chest root
L_mid_tent01 root
R_mid_tent01 root
spine01 root
Bip01_Neck chest
L_humerus chest
R_humerus chest
weapon_bone chest
Bip01_Head Bip01_Neck
eye_left_bone Bip01_Head
eye_right_bone Bip01_Head
L_forearm L_humerus
L_front_hand L_forearm
L_weapon_bone L_forearm
L_front_hand01_01 L_front_hand
L_front_hand02_01 L_front_hand
L_front_hand03_01 L_front_hand
L_front_hand01_02 L_front_hand01_01
L_front_hand02_02 L_front_hand02_01
L_front_hand03_02 L_front_hand03_01
R_forearm R_humerus
R_front_hand R_forearm
R_weapon_bone R_forearm
R_front_hand01_01 R_front_hand
R_front_hand02_01 R_front_hand
R_front_hand03_01 R_front_hand
R_front_hand01_02 R_front_hand01_01
R_front_hand02_02 R_front_hand02_01
R_front_hand03_02 R_front_hand03_01
null_rope01_connect L_mid_tent01
Rope1_Seg01 null_rope01_connect
Rope1_Seg02 Rope1_Seg01
Rope1_Seg03 Rope1_Seg02
Rope1_Seg04 Rope1_Seg03
Rope1_Seg05 Rope1_Seg04
Rope1_Seg06 Rope1_Seg05
Rope1_Seg07 Rope1_Seg06
Rope1_Seg09 Rope1_Seg07
L_mid_hand01 Rope1_Seg09
L_mid_hand02 Rope1_Seg09
L_mid_hand03 Rope1_Seg09
null_rope02_connect R_mid_tent01
Rope2_Seg01 null_rope02_connect
Rope2_Seg02 Rope2_Seg01
Rope2_Seg03 Rope2_Seg02
Rope2_Seg04 Rope2_Seg03
Rope2_Seg05 Rope2_Seg04
Rope2_Seg06 Rope2_Seg05
Rope2_Seg07 Rope2_Seg06
Rope2_Seg09 Rope2_Seg07
R_mid_hand01 Rope2_Seg09
R_mid_hand02 Rope2_Seg09
R_mid_hand03 Rope2_Seg09
spine02 spine01
spine03 spine02
pelvis spine03
null_rope03_connect pelvis
null_rope04_connect pelvis
Rope3_Seg01 null_rope03_connect
Rope3_Seg02 Rope3_Seg01
Rope3_Seg03 Rope3_Seg02
Rope3_Seg04 Rope3_Seg03
Rope3_Seg05 Rope3_Seg04
Rope3_Seg06 Rope3_Seg05
Rope3_Seg07 Rope3_Seg06
Rope3_Seg08 Rope3_Seg07
Rope3_Seg09 Rope3_Seg08
R_rear_hand01 Rope3_Seg09
R_rear_hand02 Rope3_Seg09
R_rear_hand03 Rope3_Seg09
Rope4_Seg01 null_rope04_connect
Rope4_Seg02 Rope4_Seg01
Rope4_Seg03 Rope4_Seg02
Rope4_Seg04 Rope4_Seg03
Rope4_Seg05 Rope4_Seg04
Rope4_Seg06 Rope4_Seg05
Rope4_Seg07 Rope4_Seg06
Rope4_Seg08 Rope4_Seg07
Rope4_Seg09 Rope4_Seg08
L_rear_hand01 Rope4_Seg09
L_rear_hand02 Rope4_Seg09
L_rear_hand03 Rope4_Seg09
[BasePosition]
#SegmentName Tx, Ty, Tz, Rx, Ry, Rz, BoneLength
MASTER 0.000000 0.000000 0.000000 -90.000000 0.000000 0.000000 10.000000 
root 0.000000 0.000000 0.000000 0.000000 0.000000 0.000000 10.000000 
chest 0.000000 0.000000 0.000000 0.000000 0.000000 0.000000 10.000000 
L_mid_tent01 0.000000 0.000000 0.000000 0.000000 0.000000 0.000000 10.000000 
R_mid_tent01 0.000000 0.000000 0.000000 0.000000 0.000000 0.000000 10.000000 
spine01 0.000000 0.000000 0.000000 0.000000 0.000000 0.000000 10.000000 
Bip01_Neck 0.000000 0.000000 0.000000 0.000000 0.000000 0.000000 10.000000 
L_humerus 0.000000 0.000000 0.000000 0.000000 0.000000 0.000000 10.000000 
R_humerus 0.000000 0.000000 0.000000 0.000000 0.000000 0.000000 10.000000 
weapon_bone 0.000000 0.000000 0.000000 0.000000 0.000000 0.000000 10.000000 
Bip01_Head 0.000000 0.000000 0.000000 0.000000 0.000000 0.000000 10.000000 
eye_left_bone 0.000000 0.000000 0.000000 0.000000 0.000000 0.000000 10.000000 
eye_right_bone 0.000000 0.000000 0.000000 0.000000 0.000000 0.000000 10.000000 
L_forearm 0.000000 0.000000 0.000000 0.000000 0.000000 0.000000 10.000000 
L_front_hand 0.000000 0.000000 0.000000 0.000000 0.000000 0.000000 10.000000 
L_weapon_bone 0.000000 0.000000 0.000000 0.000000 0.000000 0.000000 10.000000 
L_front_hand01_01 0.000000 0.000000 0.000000 0.000000 0.000000 0.000000 10.000000 
L_front_hand02_01 0.000000 0.000000 0.000000 0.000000 0.000000 0.000000 10.000000 
L_front_hand03_01 0.000000 0.000000 0.000000 0.000000 0.000000 0.000000 10.000000 
L_front_hand01_02 0.000000 0.000000 0.000000 0.000000 0.000000 0.000000 10.000000 
L_front_hand02_02 0.000000 0.000000 0.000000 0.000000 0.000000 0.000000 10.000000 
L_front_hand03_02 0.000000 0.000000 0.000000 0.000000 0.000000 0.000000 10.000000 
R_forearm 0.000000 0.000000 0.000000 0.000000 0.000000 0.000000 10.000000 
R_front_hand 0.000000 0.000000 0.000000 0.000000 0.000000 0.000000 10.000000 
R_weapon_bone 0.000000 0.000000 0.000000 0.000000 0.000000 0.000000 10.000000 
R_front_hand01_01 0.000000 0.000000 0.000000 0.000000 0.000000 0.000000 10.000000 
R_front_hand02_01 0.000000 0.000000 0.000000 0.000000 0.000000 0.000000 10.000000 
R_front_hand03_01 0.000000 0.000000 0.000000 0.000000 0.000000 0.000000 10.000000 
R_front_hand01_02 0.000000 0.000000 0.000000 0.000000 0.000000 0.000000 10.000000 
R_front_hand02_02 0.000000 0.000000 0.000000 0.000000 0.000000 0.000000 10.000000 
R_front_hand03_02 0.000000 0.000000 0.000000 0.000000 0.000000 0.000000 10.000000 
null_rope01_connect 0.000000 0.000000 0.000000 0.000000 0.000000 0.000000 10.000000 
Rope1_Seg01 0.000000 0.000000 0.000000 0.000000 0.000000 0.000000 10.000000 
Rope1_Seg02 0.000000 0.000000 0.000000 0.000000 0.000000 0.000000 10.000000 
Rope1_Seg03 0.000000 0.000000 0.000000 0.000000 0.000000 0.000000 10.000000 
Rope1_Seg04 0.000000 0.000000 0.000000 0.000000 0.000000 0.000000 10.000000 
Rope1_Seg05 0.000000 0.000000 0.000000 0.000000 0.000000 0.000000 10.000000 
Rope1_Seg06 0.000000 0.000000 0.000000 0.000000 0.000000 0.000000 10.000000 
Rope1_Seg07 0.000000 0.000000 0.000000 0.000000 0.000000 0.000000 10.000000 
Rope1_Seg09 0.000000 0.000000 0.000000 0.000000 0.000000 0.000000 10.000000 
L_mid_hand01 0.000000 0.000000 0.000000 0.000000 0.000000 0.000000 10.000000 
L_mid_hand02 0.000000 0.000000 0.000000 0.000000 0.000000 0.000000 10.000000 
L_mid_hand03 0.000000 0.000000 0.000000 0.000000 0.000000 0.000000 10.000000 
null_rope02_connect 0.000000 0.000000 0.000000 0.000000 0.000000 0.000000 10.000000 
Rope2_Seg01 0.000000 0.000000 0.000000 0.000000 0.000000 0.000000 10.000000 
Rope2_Seg02 0.000000 0.000000 0.000000 0.000000 0.000000 0.000000 10.000000 
Rope2_Seg03 0.000000 0.000000 0.000000 0.000000 0.000000 0.000000 10.000000 
Rope2_Seg04 0.000000 0.000000 0.000000 0.000000 0.000000 0.000000 10.000000 
Rope2_Seg05 0.000000 0.000000 0.000000 0.000000 0.000000 0.000000 10.000000 
Rope2_Seg06 0.000000 0.000000 0.000000 0.000000 0.000000 0.000000 10.000000 
Rope2_Seg07 0.000000 0.000000 0.000000 0.000000 0.000000 0.000000 10.000000 
Rope2_Seg09 0.000000 0.000000 0.000000 0.000000 0.000000 0.000000 10.000000 
R_mid_hand01 0.000000 0.000000 0.000000 0.000000 0.000000 0.000000 10.000000 
R_mid_hand02 0.000000 0.000000 0.000000 0.000000 0.000000 0.000000 10.000000 
R_mid_hand03 0.000000 0.000000 0.000000 0.000000 0.000000 0.000000 10.000000 
spine02 0.000000 0.000000 0.000000 0.000000 0.000000 0.000000 10.000000 
spine03 0.000000 0.000000 0.000000 0.000000 0.000000 0.000000 10.000000 
pelvis 0.000000 0.000000 0.000000 0.000000 0.000000 0.000000 10.000000 
null_rope03_connect 0.000000 0.000000 0.000000 0.000000 0.000000 0.000000 10.000000 
null_rope04_connect 0.000000 0.000000 0.000000 0.000000 0.000000 0.000000 10.000000 
Rope3_Seg01 0.000000 0.000000 0.000000 0.000000 0.000000 0.000000 10.000000 
Rope3_Seg02 0.000000 0.000000 0.000000 0.000000 0.000000 0.000000 10.000000 
Rope3_Seg03 0.000000 0.000000 0.000000 0.000000 0.000000 0.000000 10.000000 
Rope3_Seg04 0.000000 0.000000 0.000000 0.000000 0.000000 0.000000 10.000000 
Rope3_Seg05 0.000000 0.000000 0.000000 0.000000 0.000000 0.000000 10.000000 
Rope3_Seg06 0.000000 0.000000 0.000000 0.000000 0.000000 0.000000 10.000000 
Rope3_Seg07 0.000000 0.000000 0.000000 0.000000 0.000000 0.000000 10.000000 
Rope3_Seg08 0.000000 0.000000 0.000000 0.000000 0.000000 0.000000 10.000000 
Rope3_Seg09 0.000000 0.000000 0.000000 0.000000 0.000000 0.000000 10.000000 
R_rear_hand01 0.000000 0.000000 0.000000 0.000000 0.000000 0.000000 10.000000 
R_rear_hand02 0.000000 0.000000 0.000000 0.000000 0.000000 0.000000 10.000000 
R_rear_hand03 0.000000 0.000000 0.000000 0.000000 0.000000 0.000000 10.000000 
Rope4_Seg01 0.000000 0.000000 0.000000 0.000000 0.000000 0.000000 10.000000 
Rope4_Seg02 0.000000 0.000000 0.000000 0.000000 0.000000 0.000000 10.000000 
Rope4_Seg03 0.000000 0.000000 0.000000 0.000000 0.000000 0.000000 10.000000 
Rope4_Seg04 0.000000 0.000000 0.000000 0.000000 0.000000 0.000000 10.000000 
Rope4_Seg05 0.000000 0.000000 0.000000 0.000000 0.000000 0.000000 10.000000 
Rope4_Seg06 0.000000 0.000000 0.000000 0.000000 0.000000 0.000000 10.000000 
Rope4_Seg07 0.000000 0.000000 0.000000 0.000000 0.000000 0.000000 10.000000 
Rope4_Seg08 0.000000 0.000000 0.000000 0.000000 0.000000 0.000000 10.000000 
Rope4_Seg09 0.000000 0.000000 0.000000 0.000000 0.000000 0.000000 10.000000 
L_rear_hand01 0.000000 0.000000 0.000000 0.000000 0.000000 0.000000 10.000000 
L_rear_hand02 0.000000 0.000000 0.000000 0.000000 0.000000 0.000000 10.000000 
L_rear_hand03 0.000000 0.000000 0.000000 0.000000 0.000000 0.000000 10.000000 
#Beginning of Data. Separated by tabs
#Fr	Tx	Ty	Tz	Rx	Ry	Rz	SF
[MASTER]
11 0.000003 -0.000082 -1145.692139 0.001660 0.001660 0.001660 1145.692139
12 0.000003 -0.000079 -1348.528198 0.001660 0.001660 0.001660 1348.528076
[root]
11 -16.502298 -24.581392 1468.354004 -93.152153 -14.459418 -90.706390 1468.652466
12 -16.502298 -23.057808 1467.202271 -95.259056 -14.942868 -91.266411 1467.476196
[chest]
11 -84.512650 -34.090519 0.000000 -49.680790 0.502816 159.561478 91.129311
12 -84.512650 -34.090519 0.000000 -40.278572 -1.346540 160.461014 91.129311
[L_mid_tent01]
11 27.299278 22.178501 -249.918549 -32.491646 75.403801 51.827045 252.381500
12 27.299276 22.178518 -249.918549 -15.025383 67.735847 67.961433 252.381500
[R_mid_tent01]
11 23.228794 24.509907 226.238495 165.228134 -67.908203 84.054031 228.744751
12 23.228794 24.509907 226.238495 162.861450 -63.966991 86.357597 228.744751
[spine01]
11 -0.361383 -0.195265 0.000000 0.002062 0.001122 32.879829 0.410763
12 -0.361383 -0.195265 0.000000 0.002062 0.001122 32.879829 0.410763
[Bip01_Neck]
11 165.484543 71.581718 0.000119 176.643677 -1.657967 43.431911 180.302734
12 165.484543 71.581718 0.000119 176.643677 -1.657967 43.431911 180.302734
[L_humerus]
11 -13.983130 -135.272980 -120.471481 156.317337 70.210075 -112.010300 181.680161
12 -13.983130 -135.272980 -120.471481 139.121796 73.759003 -124.516998 181.680161
[R_humerus]
11 -13.983309 -135.273102 125.287651 -172.382233 -66.903793 -92.554047 184.909012
12 -13.983309 -135.273102 125.287651 -169.258148 -55.697731 -97.487808 184.909012
[weapon_bone]
11 235.964890 -300.705902 0.000000 0.000000 -89.951546 -128.212341 382.234833
12 235.964890 -300.705902 0.000000 0.000000 -89.951546 -128.212341 382.234833
[Bip01_Head]
11 213.328522 186.031097 7.704220 31.649963 6.001930 -43.836647 283.153656
12 213.328125 186.033905 7.667961 32.300629 6.066397 -43.832451 283.154205
[eye_left_bone]
11 -24.626970 125.451866 -64.772606 0.000000 -90.000000 -99.840431 143.318359
12 -24.626970 125.451866 -64.772606 0.000000 -90.000000 -99.840431 143.318359
[eye_right_bone]
11 -24.626970 125.451866 64.327362 0.000000 -89.965736 80.156380 143.117676
12 -24.626970 125.451866 64.327362 0.000000 -89.965736 80.156380 143.117676
[L_forearm]
11 322.776093 0.000000 -0.000119 0.000188 -0.002340 -99.201271 322.776093
12 322.776093 0.000000 -0.000119 0.000179 -0.002340 -98.765961 322.776093
[L_front_hand]
11 241.149185 -0.042021 -3.300071 -178.524948 -1.724925 -31.961512 241.171753
12 241.149185 -0.042021 -3.300071 -178.536057 -1.734699 -31.586720 241.171753
[L_weapon_bone]
11 156.183838 0.000000 0.000000 0.000014 0.000007 0.000001 156.183838
12 156.183838 0.000000 0.000000 0.000014 0.000007 0.000001 156.183838
[L_front_hand01_01]
11 86.095154 20.947098 -0.655860 -0.366594 -0.477154 75.385574 88.609184
12 86.095154 20.947098 -0.655860 -0.366594 -0.477154 75.385574 88.609184
[L_front_hand02_01]
11 86.935165 -11.437475 24.513514 154.399796 -59.883835 -61.369587 91.046425
12 86.935165 -11.437475 24.513514 154.399811 -59.883846 -61.369606 91.046425
[L_front_hand03_01]
11 86.637497 -14.123976 -20.424902 -153.913849 58.118122 -62.702866 90.126129
12 86.637497 -14.123976 -20.424902 -153.913879 58.118130 -62.702892 90.126129
[L_front_hand01_02]
11 71.020905 -0.000179 0.000030 0.000331 -0.002324 -106.206612 71.020905
12 71.020905 -0.000179 0.000030 0.000332 -0.002324 -106.249886 71.020905
[L_front_hand02_02]
11 71.020927 -0.000119 0.000060 0.000331 -0.002324 -106.206612 71.020927
12 71.020927 -0.000119 0.000060 0.000332 -0.002324 -106.249886 71.020927
[L_front_hand03_02]
11 71.020905 -0.000060 0.000060 0.000331 -0.002324 -106.206612 71.020905
12 71.020905 -0.000060 0.000060 0.000332 -0.002324 -106.249886 71.020905
[R_forearm]
11 322.776428 -0.000060 0.000030 0.212382 0.021643 -97.265251 322.776428
12 322.776428 -0.000060 0.000030 0.212455 0.020932 -96.881905 322.776428
[R_front_hand]
11 238.847015 -0.006795 2.210259 -1.631153 -10.841866 -31.682028 238.857239
12 238.847015 -0.006795 2.210259 -1.715191 -10.829736 -31.237379 238.857239
[R_weapon_bone]
11 155.664093 0.002503 -0.000030 0.003487 0.001180 -90.988930 155.664078
12 155.664093 0.002503 -0.000030 0.003487 0.001180 -90.988930 155.664078
[R_front_hand01_01]
11 87.624611 14.231146 22.918642 -154.633514 -59.950626 61.746063 91.683487
12 87.624611 14.231146 22.918642 -154.633499 -59.950619 61.746044 91.683487
[R_front_hand02_01]
11 89.356956 14.367283 -19.491137 154.602661 58.302849 63.744389 92.579636
12 89.356956 14.367283 -19.491137 154.602661 58.302849 63.744389 92.579636
[R_front_hand03_01]
11 87.286232 -22.307278 -0.143439 0.162155 -0.423168 -75.767921 90.091743
12 87.286232 -22.307278 -0.143439 0.162155 -0.423168 -75.767921 90.091743
[R_front_hand01_02]
11 71.020905 0.000060 0.000119 0.002323 -0.000334 106.381714 71.020905
12 71.020905 0.000060 0.000119 0.002323 -0.000334 106.381714 71.020905
[R_front_hand02_02]
11 71.020844 -0.000030 -0.000119 0.002323 -0.000334 106.381714 71.020836
12 71.020844 -0.000030 -0.000119 0.002323 -0.000334 106.381714 71.020836
[R_front_hand03_02]
11 71.020905 0.000000 0.000030 0.002323 -0.000334 106.381714 71.020905
12 71.020905 0.000000 0.000030 0.002323 -0.000334 106.381714 71.020905
[null_rope01_connect]
11 328.732483 0.000000 -0.000238 -160.659729 -8.900753 -172.439667 328.732483
12 328.732483 0.000000 -0.000238 -159.031067 -15.784439 -174.613693 328.732483
[Rope1_Seg01]
11 0.000020 -0.000052 0.000078 -21.378660 -14.177326 -169.350494 0.000096
12 0.000022 -0.000052 0.000086 -18.686930 -11.156485 -168.334381 0.000103
[Rope1_Seg02]
11 139.999863 -0.000179 0.000000 -10.964299 -7.578156 -14.430998 139.999863
12 139.999863 -0.000179 0.000000 -13.424027 -10.770215 -18.059814 139.999863
[Rope1_Seg03]
11 139.999924 0.000060 -0.000060 -8.590952 -5.533114 -22.197208 139.999924
12 139.999924 0.000060 -0.000060 -8.329602 -6.136621 -24.655148 139.999924
[Rope1_Seg04]
11 139.999924 -0.000060 -0.000119 -3.290582 -0.781829 -24.936686 139.999924
12 139.999924 -0.000060 -0.000119 -2.363376 -1.206380 -20.564678 139.999924
[Rope1_Seg05]
11 139.999832 0.000119 -0.000060 -0.050394 -4.530171 -4.442162 139.999832
12 139.999832 0.000119 -0.000060 -0.062038 -3.461470 -4.772613 139.999832
[Rope1_Seg06]
11 139.999954 0.000119 -0.000060 -0.225373 -4.460910 3.158676 139.999954
12 139.999954 0.000119 -0.000060 -0.124778 -3.400561 0.925663 139.999954
[Rope1_Seg07]
11 139.999985 0.000060 0.000000 -0.196489 -1.764546 -0.301988 139.999985
12 139.999985 0.000060 0.000000 -0.115748 -1.453341 -0.882231 139.999985
[Rope1_Seg09]
11 121.602913 0.000119 -0.000089 -89.793175 -1.359789 0.847147 121.602913
12 121.602913 0.000119 -0.000089 -89.793175 -1.359789 0.847147 121.602913
[L_mid_hand01]
11 103.859421 1.038730 8.195221 130.544373 -67.584534 -38.866943 104.187431
12 103.859421 1.038730 8.195221 130.544373 -67.584534 -38.866943 104.187431
[L_mid_hand02]
11 105.572853 -4.139662 -10.864139 -168.923172 43.409321 -73.498909 106.211075
12 105.572853 -4.139662 -10.864139 -168.923172 43.409309 -73.498886 106.211075
[L_mid_hand03]
11 104.641464 17.579376 -3.913581 -6.012627 17.808174 74.893669 106.179977
12 104.641464 17.579376 -3.913581 -6.012627 17.808174 74.893669 106.179977
[null_rope02_connect]
11 328.732849 0.000179 -0.000119 -143.467148 24.666918 6.571718 328.732849
12 328.732849 0.000179 -0.000119 -141.984177 30.413740 9.367630 328.732849
[Rope2_Seg01]
11 -0.000027 0.000102 0.000000 58.905643 52.384308 -6.595243 0.000106
12 -0.000022 0.000102 0.000000 56.428211 52.769764 -9.274044 0.000105
[Rope2_Seg02]
11 139.999741 -0.000060 -0.000119 0.068178 5.247225 -1.465666 139.999756
12 139.999741 -0.000060 -0.000119 -0.109726 5.769751 -2.504814 139.999756
[Rope2_Seg03]
11 140.000107 0.000030 0.000000 -0.160923 9.363169 -2.651667 140.000107
12 140.000107 0.000030 0.000000 -0.362433 9.819322 -4.294465 140.000107
[Rope2_Seg04]
11 139.999802 0.000000 -0.000060 -1.341541 18.015652 -8.174763 139.999802
12 139.999802 0.000000 -0.000060 -0.831746 15.865877 -9.698125 139.999802
[Rope2_Seg05]
11 139.999985 -0.000060 0.000119 -16.468328 38.489456 -4.905032 139.999985
12 139.999985 -0.000060 0.000119 -7.900748 31.843018 -10.814182 139.999985
[Rope2_Seg06]
11 139.999893 -0.000030 -0.000119 -18.621317 12.110829 4.003113 139.999893
12 139.999893 -0.000030 -0.000119 -23.604561 19.765623 -0.384921 139.999893
[Rope2_Seg07]
11 139.999893 0.000060 -0.000060 -10.758173 4.428589 2.676958 139.999893
12 139.999893 0.000060 -0.000060 -23.627497 7.683428 2.393344 139.999893
[Rope2_Seg09]
11 121.338966 0.000089 -0.000060 33.793236 -1.359788 -0.847141 121.338966
12 121.338966 0.000089 -0.000060 33.793236 -1.359788 -0.847141 121.338966
[R_mid_hand01]
11 104.680779 11.144459 -10.335981 -16.212063 45.237247 70.462852 105.778534
12 104.680779 11.144459 -10.335981 -16.212063 45.237247 70.462852 105.778534
[R_mid_hand02]
11 104.070427 2.443552 8.231699 49.067371 -67.749794 39.286461 104.424065
12 104.070427 2.443552 8.231699 49.067368 -67.749771 39.286453 104.424065
[R_mid_hand03]
11 106.028137 -11.221827 -5.996406 -177.101105 15.551026 -76.585571 106.788818
12 106.028137 -11.221827 -5.996406 -177.101105 15.551026 -76.585571 106.788818
[spine02]
11 129.756927 0.001550 0.000119 -1.206303 -4.113772 9.349713 129.756927
12 129.756927 0.001550 0.000119 -1.207140 -4.093842 9.349477 129.756927
[spine03]
11 78.613991 0.083546 -4.898935 0.917593 4.614107 2.621023 78.766525
12 78.613991 0.083485 -4.898937 0.918256 4.577807 2.617425 78.766525
[pelvis]
11 169.435242 0.051022 0.000000 0.028393 -0.014776 -13.974850 169.435257
12 169.435242 0.051022 0.000000 0.027439 -0.027355 -13.957413 169.435257
[null_rope03_connect]
11 -1.257226 -2.466202 137.391083 -154.958893 -85.908539 -131.377838 137.418976
12 -1.257226 -2.466202 137.391083 -153.651337 -83.612541 -132.247299 137.418976
[null_rope04_connect]
11 -1.259640 -2.480268 -137.844437 -154.958893 -85.908539 -131.377838 137.872513
12 -1.259640 -2.480268 -137.844437 -153.651337 -83.612541 -132.247299 137.872513
[Rope3_Seg01]
11 -0.000029 -0.000028 0.000078 13.406640 -8.261144 -57.352013 0.000088
12 -0.000029 -0.000027 0.000086 12.672826 -9.793456 -56.251408 0.000095
[Rope3_Seg02]
11 139.999924 -0.000119 0.000060 -1.852507 -4.729869 3.405411 139.999924
12 139.999924 -0.000119 0.000060 -1.763365 -4.474336 3.100328 139.999924
[Rope3_Seg03]
11 139.999924 -0.000119 0.000119 -2.301365 -5.846236 3.953622 139.999924
12 139.999924 -0.000119 0.000119 -2.034258 -5.195469 3.387196 139.999924
[Rope3_Seg04]
11 139.999924 0.000119 0.000000 -3.224888 -6.113939 6.618427 139.999924
12 139.999924 0.000119 0.000000 -2.468786 -4.199526 5.742604 139.999924
[Rope3_Seg05]
11 139.999924 -0.000238 0.000060 -3.813645 -7.496198 6.617281 139.999924
12 139.999924 -0.000238 0.000060 -2.741450 -5.470429 4.819250 139.999924
[Rope3_Seg06]
11 139.999893 -0.000119 -0.000060 -0.831516 -11.540303 -5.095853 139.999893
12 139.999893 -0.000119 -0.000060 -1.053134 -12.049114 -4.812320 139.999893
[Rope3_Seg07]
11 139.999771 0.000060 -0.000119 1.332706 -11.190611 -9.896229 139.999771
12 139.999771 0.000060 -0.000119 1.333337 -13.449255 -9.114221 139.999771
[Rope3_Seg08]
11 139.999985 -0.000060 0.000000 1.279908 -6.739029 -3.859664 139.999985
12 139.999985 -0.000060 0.000000 1.447838 -7.617875 -3.694125 139.999985
[Rope3_Seg09]
11 90.185997 -0.000179 -0.000060 89.793228 -1.359877 -0.847183 90.185997
12 90.185997 -0.000179 -0.000060 89.793228 -1.359877 -0.847183 90.185997
[R_rear_hand01]
11 103.366196 -6.073594 -10.757982 -177.714203 24.565960 -73.910950 104.101845
12 103.366196 -6.073594 -10.757982 -177.714203 24.565960 -73.910950 104.101845
[R_rear_hand02]
11 100.509819 12.039542 -7.992327 -12.874829 36.868488 72.167213 101.543350
12 100.509819 12.039542 -7.992327 -12.874829 36.868488 72.167213 101.543350
[R_rear_hand03]
11 101.539970 5.215704 5.435467 71.484581 -71.816628 21.513813 101.819031
12 101.539970 5.215704 5.435467 71.484581 -71.816628 21.513813 101.819031
[Rope4_Seg01]
11 0.000000 0.000000 0.000000 -92.835579 -25.370190 -119.672401 0.000000
12 0.000000 0.000000 0.000000 -92.420982 -27.245319 -119.971031 0.000000
[Rope4_Seg02]
11 139.999985 0.000060 0.000119 1.732915 11.678740 -7.468783 139.999985
12 139.999985 0.000060 0.000119 1.660365 13.339952 -2.981695 139.999985
[Rope4_Seg03]
11 139.999924 0.000000 -0.000238 4.940915 15.911466 -13.257074 139.999924
12 139.999924 0.000000 -0.000238 7.121751 21.682354 -8.269767 139.999924
[Rope4_Seg04]
11 139.999985 0.000000 0.000119 8.512496 14.593174 -17.157068 139.999985
12 139.999985 0.000000 0.000119 19.567574 25.206860 -15.633039 139.999985
[Rope4_Seg05]
11 139.999802 -0.000060 -0.000119 12.704372 22.144001 -12.029670 139.999802
12 139.999802 -0.000060 -0.000119 31.738319 26.793959 -8.825128 139.999802
[Rope4_Seg06]
11 139.999924 0.000000 0.000060 13.484020 13.037433 -9.584762 139.999924
12 139.999924 0.000000 0.000060 20.290462 7.793304 -7.664935 139.999924
[Rope4_Seg07]
11 139.999802 0.000000 0.000000 8.176255 4.181304 -6.421188 139.999802
12 139.999802 0.000000 0.000000 8.964324 1.285800 -4.472936 139.999802
[Rope4_Seg08]
11 139.999924 0.000000 0.000119 2.993668 1.733472 -3.758699 139.999924
12 139.999924 0.000000 0.000119 2.993042 0.309422 -2.498777 139.999924
[Rope4_Seg09]
11 90.185791 0.000060 0.000060 -135.617828 2.228885 0.850567 90.185791
12 90.185791 0.000060 0.000060 -135.617828 2.228885 0.850567 90.185791
[L_rear_hand01]
11 101.696655 -8.392275 -7.654577 -12.874829 -36.868488 107.832764 102.329041
12 101.696655 -8.392275 -7.654577 -12.874829 -36.868488 107.832764 102.329041
[L_rear_hand02]
11 102.726799 -1.568258 5.773216 71.484581 71.816628 158.486160 102.900848
12 102.726799 -1.568258 5.773216 71.484581 71.816628 158.486160 102.900848
[L_rear_hand03]
11 104.552910 9.721220 -10.420293 -177.714203 -24.565960 -106.089035 105.519653
12 104.552910 9.721220 -10.420293 -177.714203 -24.565960 -106.089035 105.519653
